<svg width="443" height="444" viewBox="0 0 443 444" fill="none" xmlns="http://www.w3.org/2000/svg">
<path fill-rule="evenodd" clip-rule="evenodd" d="M208.428 0.769533L426.42 0.769531C435.512 0.769531 442.882 8.1396 442.882 17.2311L442.882 235.223C442.872 263.098 420.284 285.692 392.415 285.721H392.265C382.912 285.717 373.681 285.165 364.604 284.094V313.501C364.594 341.376 342.006 363.971 314.137 363.999H313.987C304.161 363.995 294.471 363.386 284.952 362.206V393.152C284.942 421.028 262.354 443.622 234.485 443.651H234.336C169.642 443.626 111.048 417.372 68.6635 374.987C26.2789 332.603 0.0262471 274.009 0 209.316L7.84947e-06 209.166C0.0286019 181.296 22.6248 158.711 50.4981 158.699H81.4456C80.2649 149.181 79.6556 139.49 79.6516 129.665L79.6516 129.515C79.6802 101.644 102.276 79.0601 130.15 79.0478H159.558C158.486 69.9709 157.934 60.7398 157.93 51.3863L157.93 51.2364C157.958 23.3661 180.555 0.781754 208.428 0.769533ZM104.057 362.874C139.188 392.717 184.652 410.707 234.342 410.728C234.344 410.728 234.346 410.728 234.348 410.728H234.452C244.157 410.718 252.022 402.85 252.029 393.146C252.029 393.144 252.029 393.142 252.029 393.14V342.762C252.029 337.795 254.272 333.094 258.133 329.968C261.993 326.843 267.059 325.628 271.917 326.661C285.473 329.546 299.547 331.07 313.994 331.076C313.996 331.076 313.998 331.076 314 331.076H314.103C323.809 331.066 331.674 323.198 331.681 313.495C331.681 313.493 331.681 313.491 331.681 313.489V264.772C331.681 259.823 333.907 255.137 337.743 252.011C341.579 248.885 346.618 247.65 351.464 248.649C364.629 251.362 378.275 252.792 392.272 252.798C392.274 252.798 392.276 252.798 392.278 252.798H392.381C402.087 252.788 409.952 244.92 409.959 235.217C409.959 235.215 409.959 235.213 409.959 235.211L409.959 33.6926H208.442C208.441 33.6926 208.443 33.6926 208.442 33.6926C208.441 33.6926 208.437 33.6926 208.435 33.6926C198.732 33.7008 190.868 41.5612 190.853 51.2604C190.853 51.2637 190.853 51.2669 190.853 51.2701L190.853 51.3729C190.853 51.3752 190.853 51.3774 190.853 51.3796C190.859 65.3762 192.29 79.0225 195.002 92.1871C196.001 97.0338 194.767 102.073 191.64 105.909C188.514 109.745 183.828 111.971 178.88 111.971H130.164C120.457 111.975 112.587 119.839 112.575 129.543C112.575 129.545 112.575 129.547 112.575 129.548L112.575 129.651C112.575 129.653 112.575 129.656 112.575 129.658C112.581 144.104 114.105 158.178 116.99 171.734C118.024 176.592 116.809 181.658 113.683 185.519C110.558 189.379 105.856 191.622 100.889 191.622H50.5125C40.8058 191.626 32.9371 199.489 32.9231 209.192L32.9231 209.302C32.9231 209.304 32.9231 209.305 32.9231 209.306C32.9231 209.305 32.9231 209.307 32.9231 209.306C32.9448 258.996 50.9349 304.463 80.7765 339.594L148.315 272.056L171.595 295.336L104.057 362.874Z" fill="white"/>
<path fill-rule="evenodd" clip-rule="evenodd" d="M392.272 269.259C392.302 269.259 392.332 269.259 392.362 269.259C392.375 269.259 392.386 269.259 392.398 269.259C411.186 269.24 426.413 254.007 426.42 235.216C426.42 235.211 426.42 235.206 426.42 235.201V17.2305L238.234 205.417C277.659 244.843 332.117 269.236 392.272 269.259Z" fill="#1C2D96"/>
<path fill-rule="evenodd" clip-rule="evenodd" d="M174.391 51.379C174.391 51.3488 174.391 51.3186 174.391 51.2884C174.391 51.276 174.391 51.265 174.391 51.2526C174.411 32.4645 189.644 17.2387 208.435 17.2305C208.44 17.2305 208.445 17.2305 208.449 17.2305H426.42L238.233 205.417C198.808 165.992 174.416 111.534 174.391 51.379Z" fill="#2A41D7"/>
<path fill-rule="evenodd" clip-rule="evenodd" d="M313.994 347.537C314.024 347.537 314.054 347.537 314.084 347.537C314.097 347.537 314.108 347.537 314.12 347.537C332.908 347.518 348.135 332.285 348.142 313.494C348.142 313.489 348.142 313.485 348.142 313.479V95.5088L159.956 283.695C199.381 323.121 253.839 347.514 313.994 347.537Z" fill="#3F24C7"/>
<path fill-rule="evenodd" clip-rule="evenodd" d="M96.1132 129.657C96.1132 129.627 96.1132 129.597 96.1132 129.567C96.1132 129.554 96.1132 129.543 96.1132 129.531C96.1325 110.743 111.366 95.517 130.157 95.5088C130.162 95.5088 130.166 95.5088 130.171 95.5088H348.142L159.955 283.695C120.53 244.27 96.1376 189.812 96.1132 129.657Z" fill="#5C42DD"/>
<path fill-rule="evenodd" clip-rule="evenodd" d="M234.342 427.189C234.372 427.189 234.403 427.189 234.433 427.189C234.445 427.189 234.456 427.189 234.469 427.189C253.257 427.169 268.484 411.937 268.491 393.146C268.491 393.14 268.491 393.136 268.491 393.131V175.16L80.3041 363.347C119.729 402.773 174.187 427.165 234.342 427.189Z" fill="#6C27D8"/>
<path fill-rule="evenodd" clip-rule="evenodd" d="M16.4616 209.309C16.4616 209.278 16.4615 209.248 16.4615 209.218C16.4615 209.206 16.4616 209.195 16.4616 209.182C16.4808 190.394 31.7141 175.168 50.5054 175.16C50.51 175.16 50.5148 175.16 50.5195 175.16H268.49L80.3037 363.347C40.8785 323.922 16.486 269.463 16.4616 209.309Z" fill="#8951E0"/>
</svg>
