<svg width="66" height="88" viewBox="0 0 66 88" fill="none" xmlns="http://www.w3.org/2000/svg">
<path d="M61.9693 38.2193H55.0943V22.3752C55.0943 10.1873 45.1881 0.28125 33.0003 0.28125C20.8125 0.28125 10.9062 10.1874 10.9062 22.3752V38.2193H4.03125C2.31245 38.2193 0.90625 39.6255 0.90625 41.3443V84.5943C0.90625 86.3443 2.31245 87.7193 4.03125 87.7193H61.9693C63.6881 87.7193 65.0943 86.3443 65.0943 84.5943V41.3443C65.0943 39.6255 63.6881 38.2193 61.9693 38.2193ZM17.1573 22.3752C17.1573 13.6252 24.2823 6.53125 33.0013 6.53125C41.7203 6.53125 48.8453 13.6562 48.8453 22.3752V38.2193H17.1262V22.3752H17.1573ZM33.0013 69.2193C29.5638 69.2193 26.7512 66.4381 26.7512 62.9693C26.7512 59.5005 29.5638 56.7193 33.0013 56.7193C36.4388 56.7193 39.2513 59.5318 39.2513 62.9693C39.2513 66.4068 36.4388 69.2193 33.0013 69.2193Z" fill="white"/>
</svg>
